<svg width="21" height="21" viewBox="0 0 21 21" fill="none" xmlns="http://www.w3.org/2000/svg">
<path d="M10.5 0.5C8.52218 0.5 6.58878 1.08649 4.94429 2.1853C3.2998 3.28412 2.01808 4.8459 1.2612 6.67317C0.504325 8.50043 0.306292 10.5111 0.692144 12.4509C1.078 14.3907 2.0304 16.1725 3.42893 17.5711C4.82745 18.9696 6.60928 19.922 8.54909 20.3079C10.4889 20.6937 12.4996 20.4957 14.3268 19.7388C16.1541 18.9819 17.7159 17.7002 18.8147 16.0557C19.9135 14.4112 20.5 12.4778 20.5 10.5C20.5 9.18678 20.2413 7.88642 19.7388 6.67317C19.2362 5.45991 18.4996 4.35752 17.5711 3.42893C16.6425 2.50035 15.5401 1.76375 14.3268 1.2612C13.1136 0.758658 11.8132 0.5 10.5 0.5V0.5ZM15.21 8.21L9.21 14.21C9.11703 14.3037 9.00643 14.3781 8.88457 14.4289C8.76271 14.4797 8.63201 14.5058 8.5 14.5058C8.36798 14.5058 8.23728 14.4797 8.11542 14.4289C7.99356 14.3781 7.88296 14.3037 7.79 14.21L5.79 12.21C5.69676 12.1168 5.6228 12.0061 5.57234 11.8842C5.52188 11.7624 5.4959 11.6319 5.4959 11.5C5.4959 11.3681 5.52188 11.2376 5.57234 11.1158C5.6228 10.9939 5.69676 10.8832 5.79 10.79C5.88323 10.6968 5.99392 10.6228 6.11575 10.5723C6.23757 10.5219 6.36814 10.4959 6.5 10.4959C6.63185 10.4959 6.76242 10.5219 6.88425 10.5723C7.00607 10.6228 7.11676 10.6968 7.21 10.79L8.5 12.09L13.79 6.79C13.9783 6.6017 14.2337 6.49591 14.5 6.49591C14.7663 6.49591 15.0217 6.6017 15.21 6.79C15.3983 6.9783 15.5041 7.2337 15.5041 7.5C15.5041 7.7663 15.3983 8.0217 15.21 8.21V8.21Z" fill="#CED1E6"/>
</svg>
